# xmcd
#
# Track frame offsets:
#	150
#	13620
#	25965
#	36983
#	47408
#	58786
#	70674
#	79322
#	88142
#	96535
#
# Disc length: 1421 seconds
#
# Revision: 1
# Processed by: cddbd v1.5.2PL0 Copyright (c) Steve Scherf et al.
# Submitted via: audiograbber 1.83.01
#
DISCID=82058b0a
DTITLE=Floyd Cramer - Night Train
DYEAR=1967
DGENRE=Country
TTITLE0=Night Train
TTITLE1=Half As Much
TTITLE2=Theme From A Dream
TTITLE3=Long Walk Home
TTITLE4=Secrets
TTITLE5=Woodchopper's Ball
TTITLE6=Town Square
TTITLE7=On A Fling Ding
TTITLE8=Shaggy Bop
TTITLE9=Want Me
EXTD=
EXTT0=
EXTT1=
EXTT2=
EXTT3=
EXTT4=
EXTT5=
EXTT6=
EXTT7=
EXTT8=
EXTT9=
PLAYORDER=
